<!-- icon666.com - MILLIONS vector ICONS FREE -->
<svg id="Capa_1" enable-background="new 0 0 512 512" viewBox="0 0 512 512" xmlns="http://www.w3.org/2000/svg">
    <path d="m7.5 114.577h497v282.845h-497z" fill="#97e4f9"></path>
    <path d="m486.317 114.577v254.561c0 5.579-4.523 10.102-10.102 10.102h-468.715v18.183h497v-282.846z"
          fill="#62d8f9"></path>
    <circle cx="159.024" cy="256" fill="#818181" r="111.118"></circle>
    <circle cx="159.024" cy="256" fill="#595959" r="70.711"></circle>
    <circle cx="159.024" cy="256" fill="#eaeaea" r="30.305"></circle>
    <path d="m441.87 144.882h-76.772l-20.204 20.204v40.406l20.204 20.203h76.772l20.203-20.203v-40.406z"
          fill="#595959"></path>
    <path d="m373.179 256h60.61v30.305h-60.61z" fill="#ec6161"></path>
    <path d="m373.179 326.711c-11.158 0-20.203 9.045-20.203 20.203s9.045 20.203 20.203 20.203h30.305v-40.406z"
          fill="#434343"></path>
    <path d="m433.789 326.711h-30.305v40.406h30.305c11.158 0 20.203-9.045 20.203-20.203 0-11.157-9.045-20.203-20.203-20.203z"
          fill="#818181"></path>
    <path d="m51.5 389.922h-36.5v-267.844h385.333c4.142 0 7.5-3.358 7.5-7.5s-3.358-7.5-7.5-7.5h-392.833c-4.142 0-7.5 3.358-7.5 7.5v282.845c0 4.142 3.358 7.5 7.5 7.5h44c4.142 0 7.5-3.358 7.5-7.5s-3.358-7.501-7.5-7.501z"></path>
    <path d="m504.5 107.078h-69.167c-4.142 0-7.5 3.358-7.5 7.5s3.358 7.5 7.5 7.5h61.667v267.845h-410.521c-4.142 0-7.5 3.358-7.5 7.5s3.358 7.5 7.5 7.5h418.021c4.142 0 7.5-3.358 7.5-7.5v-282.845c0-4.142-3.358-7.5-7.5-7.5z"></path>
    <path d="m159.024 374.618c30.009 0 57.445-11.207 78.359-29.648l17.354 17.354c1.464 1.464 3.384 2.197 5.303 2.197s3.839-.732 5.303-2.197c2.929-2.929 2.929-7.678 0-10.606l-17.354-17.354c18.444-20.914 29.652-48.352 29.652-78.363s-11.209-57.449-29.652-78.363l17.354-17.354c2.929-2.929 2.929-7.678 0-10.606-2.929-2.929-7.678-2.929-10.606 0l-17.354 17.354c-20.913-18.441-48.35-29.648-78.359-29.648s-57.445 11.207-78.359 29.649l-17.352-17.354c-2.93-2.93-7.678-2.93-10.606-.001-2.929 2.929-2.93 7.678-.001 10.606l17.352 17.354c-18.443 20.913-29.651 48.351-29.651 78.362s11.209 57.449 29.652 78.363l-17.352 17.354c-2.929 2.929-2.928 7.678.001 10.606 1.464 1.464 3.383 2.196 5.303 2.196s3.839-.732 5.304-2.197l17.352-17.354c20.912 18.442 48.349 29.65 78.357 29.65zm0-15c-25.873 0-49.562-9.533-67.739-25.27l18.017-18.019c13.525 11.167 30.854 17.883 49.722 17.883 18.867 0 36.195-6.715 49.72-17.881l18.018 18.018c-18.177 15.736-41.865 25.269-67.738 25.269zm22.805-103.618c0 12.575-10.23 22.805-22.805 22.805s-22.804-10.23-22.804-22.805 10.23-22.805 22.805-22.805 22.804 10.23 22.804 22.805zm-43.692 31.49c5.989 3.985 13.17 6.314 20.888 6.314 7.715 0 14.895-2.328 20.883-6.311l18.162 18.162c-10.759 8.478-24.316 13.556-39.045 13.556-14.731 0-28.289-5.079-39.048-13.558zm52.377-10.602c3.986-5.989 6.315-13.17 6.315-20.888s-2.329-14.899-6.315-20.888l18.162-18.162c8.48 10.76 13.56 24.318 13.56 39.05s-5.079 28.29-13.56 39.05zm-10.607-52.381c-5.988-3.983-13.167-6.311-20.883-6.311-7.717 0-14.899 2.329-20.888 6.314l-18.161-18.163c10.759-8.48 24.318-13.558 39.048-13.558 14.729 0 28.286 5.078 39.045 13.556zm-52.376 10.61c-3.984 5.988-6.312 13.167-6.312 20.883s2.328 14.895 6.312 20.883l-18.161 18.163c-8.479-10.758-13.557-24.316-13.557-39.046s5.078-28.288 13.557-39.046zm135.111 20.883c0 25.875-9.534 49.565-25.273 67.743l-18.018-18.018c11.168-13.525 17.885-30.855 17.885-49.724s-6.717-36.199-17.885-49.724l18.018-18.018c15.739 18.176 25.273 41.866 25.273 67.741zm-103.618-103.618c25.873 0 49.561 9.532 67.738 25.269l-18.018 18.018c-13.525-11.166-30.853-17.881-49.72-17.881-18.868 0-36.197 6.716-49.722 17.883l-18.017-18.019c18.177-15.737 41.866-25.27 67.739-25.27zm-103.617 103.618c0-25.875 9.534-49.564 25.272-67.742l18.017 18.019c-11.167 13.526-17.883 30.855-17.883 49.723s6.716 36.197 17.883 49.722l-18.017 18.019c-15.739-18.177-25.272-41.866-25.272-67.741z"></path>
    <path d="m469.573 205.492v-40.407c0-1.989-.79-3.897-2.197-5.303l-20.203-20.203c-1.406-1.407-3.314-2.197-5.303-2.197h-76.772c-1.989 0-3.897.79-5.303 2.197l-20.203 20.203c-1.407 1.406-2.197 3.314-2.197 5.303v40.407c0 1.989.79 3.897 2.197 5.303l20.203 20.203c1.406 1.407 3.314 2.197 5.303 2.197h76.772c1.989 0 3.897-.79 5.303-2.197l20.203-20.203c1.407-1.406 2.197-3.314 2.197-5.303zm-15-3.106-15.81 15.81h-70.56l-15.81-15.81v-34.194l15.81-15.81h70.56l15.81 15.81z"></path>
    <circle cx="378.23" cy="174.177" r="10.102"></circle>
    <circle cx="428.738" cy="174.177" r="10.102"></circle>
    <circle cx="403.484" cy="196.401" r="10.102"></circle>
    <path d="m433.789 293.805c4.142 0 7.5-3.358 7.5-7.5v-30.305c0-4.142-3.358-7.5-7.5-7.5h-60.61c-4.142 0-7.5 3.358-7.5 7.5v30.305c0 4.142 3.358 7.5 7.5 7.5zm-53.11-30.305h45.61v15.305h-45.61z"></path>
    <path d="m345.476 346.711v.406c0 15.164 12.336 27.5 27.5 27.5h61.016c15.164 0 27.5-12.336 27.5-27.5v-.406c0-15.164-12.336-27.5-27.5-27.5h-61.016c-15.164 0-27.5 12.337-27.5 27.5zm101.016 0v.406c0 6.893-5.607 12.5-12.5 12.5h-23.008v-25.406h23.008c6.892 0 12.5 5.608 12.5 12.5zm-86.016 0c0-6.893 5.607-12.5 12.5-12.5h23.008v25.406h-23.008c-6.893 0-12.5-5.607-12.5-12.5z"></path>
    <path d="m478.741 147.913c4.184 0 7.576-3.392 7.576-7.576s-3.392-7.576-7.576-7.576-7.576 3.392-7.576 7.576 3.392 7.576 7.576 7.576z"></path>
    <path d="m33.259 132.76c-4.184 0-7.576 3.392-7.576 7.576s3.392 7.576 7.576 7.576 7.576-3.392 7.576-7.576-3.392-7.576-7.576-7.576z"></path>
    <path d="m478.741 379.24c4.184 0 7.576-3.392 7.576-7.576s-3.392-7.576-7.576-7.576-7.576 3.392-7.576 7.576 3.392 7.576 7.576 7.576z"></path>
    <path d="m25.683 371.663c0 4.184 3.392 7.576 7.576 7.576s7.576-3.392 7.576-7.576-3.392-7.576-7.576-7.576-7.576 3.392-7.576 7.576z"></path>
</svg>