<!-- icon666.com - MILLIONS vector ICONS FREE -->
<svg clip-rule="evenodd" fill-rule="evenodd" stroke-linejoin="round" stroke-miterlimit="2" viewBox="0 0 128 128"
     xmlns="http://www.w3.org/2000/svg">
    <path d="m66 12c0-.552-.448-1-1-1-3.151 0-12.849 0-16 0-.265 0-.52.105-.707.293-.188.187-.293.442-.293.707v7h18zm14 0c0-.552-.448-1-1-1h-6c-.552 0-1 .448-1 1v7h8z"
          fill="#fbec38"></path>
    <path d="m69.904 117c-.491 0-.909-.357-.987-.841-.389-2.361-2.445-4.159-4.917-4.159s-4.528 1.798-4.929 4.157c-.077.479-.49.831-.975.831-2.037.012-6.972.012-9.096.012-.552 0-1-.448-1-1 0-10.318 0-97 0-97h18v3c0 1.656 1.344 3 3 3s3-1.344 3-3v-3h8v97c0 .552-.448 1-1 1-2.124 0-7.059 0-9.096 0z"
          fill="#42a147"></path>
    <path d="m75 31c0-.552-.448-1-1-1-3.665 0-16.335 0-20 0-.552 0-1 .448-1 1v72c0 .552.448 1 1 1h20c.552 0 1-.448 1-1 0-8.169 0-63.831 0-72z"
          fill="#fff"></path>
    <path d="m71 11v11c0 1.104-.896 2-2 2s-2-.896-2-2v-11c0-.552-.448-1-1-1h-17c-.53 0-1.039.211-1.414.586s-.586.884-.586 1.414v104c0 1.105.895 2 2 2 2.126 0 7.064 0 9.102-.012.97 0 1.801-.709 1.956-1.672.32-1.878 1.964-3.316 3.942-3.316 1.976 0 3.619 1.435 3.931 3.322.155.965.991 1.678 1.973 1.678h9.096c1.105 0 2-.895 2-2 0 0 0-101.854 0-104 0-1.105-.895-2-2-2h-7c-.552 0-1 .448-1 1zm-1.096 104.996c-.468-2.835-2.935-4.996-5.904-4.996-2.966 0-5.432 2.158-5.915 4.988l-9.085.012v-96h16v2c0 2.208 1.792 4 4 4s4-1.792 4-4v-2h6v96zm6.096-84.996c0-1.105-.895-2-2-2h-20c-1.105 0-2 .895-2 2v72c0 1.105.895 2 2 2h20c1.105 0 2-.895 2-2zm-22 72h20v-72h-20zm19-85h6v-6h-2v3c0 .552-.448 1-1 1s-1-.448-1-1v-3h-2zm-24 0h16v-6h-1v3c0 .552-.448 1-1 1s-1-.448-1-1v-3h-1v3c0 .552-.448 1-1 1s-1-.448-1-1v-3h-1v3c0 .552-.448 1-1 1s-1-.448-1-1v-3h-1v3c0 .552-.448 1-1 1s-1-.448-1-1v-3h-1v3c0 .552-.448 1-1 1s-1-.448-1-1v-3h-1z"></path>
</svg>